# xmcd
#
# Track frame offsets:
#	151
#	5232
#	69312
#	120551
#	161621
#	201311
#
# Disc length: 3225 seconds
#
# Revision: 1
# Processed by: cddbd v1.5.2PL0 Copyright (c) Steve Scherf et al.
# Submitted via: audiograbber 1.80
#
DISCID=4e0c9706
DTITLE=Mick Taylor Band - Live In Hungary 2001
DYEAR=1900
DGENRE=
TTITLE0=Intro
TTITLE1=Catfish Blues
TTITLE2=Red House
TTITLE3=Little Red Rooster
TTITLE4=You Shook Me
TTITLE5=i Wonder Why
EXTD=
EXTT0=
EXTT1=
EXTT2=
EXTT3=
EXTT4=
EXTT5=
PLAYORDER=
